inDegrees=yes
name=ik_S53_A05_T02
DataType=double
version=3
OpenSimVersion=4.3-2021-08-27-4bc7ad9
endheader
time	pelvis_tilt	pelvis_list	pelvis_rotation	pelvis_tx	pelvis_ty	pelvis_tz	hip_flexion_r	hip_adduction_r	hip_rotation_r	knee_angle_r	knee_angle_r_beta	ankle_angle_r	subtalar_angle_r	mtp_angle_r	hip_flexion_l	hip_adduction_l	hip_rotation_l	knee_angle_l	knee_angle_l_beta	ankle_angle_l	subtalar_angle_l	mtp_angle_l	lumbar_extension	lumbar_bending	lumbar_rotation	arm_flex_r	arm_add_r	arm_rot_r	elbow_flex_r	pro_sup_r	wrist_flex_r	wrist_dev_r	arm_flex_l	arm_add_l	arm_rot_l	elbow_flex_l	pro_sup_l	wrist_flex_l	wrist_dev_l
0	0	0	0	0	0.9399999999999999	0	0	0	0	0	0	0	0	0	0	0	0	0	0	0	0	0	0	0	0	0	0	0	0	89.99999999963507	0	0	0	0	0	0	89.99999999869995	0	0
0.01666666666666667	-3.543822041653607	-1.319166515371324	25.74048099028823	0	0.9399999999999999	0	3.122441828864372	-1.465317884398906	-1.051596021993982	4.785304852007948	0.08351932537919866	0	0	0	3.122441828864372	-1.465317884398906	-1.051596021993982	4.785304852007948	0.08351932537919866	0	0	0	0.2407326803980804	-0.292168995355764	5.918320234085315	27.24446116833902	-6.784491225017612	-17.4669790183317	50.93339019624267	160.8990907013387	0	0	30.1844911916728	-8.673389509382966	-12.1634992294585	27.02571276960291	128.4759234407301	0	0
0.03333333333333333	-3.50610935837132	-1.281760242573205	25.81506459557495	0	0.9399999999999999	0	5.111662410814677	-2.372329912714012	-1.753625433234943	6.639747024904962	0.1158854470840895	0	0	0	5.111662410814677	-2.372329912714012	-1.753625433234943	6.639747024904962	0.1158854470840895	0	0	0	0.1960100879393137	-0.2852653890765832	5.831189528332905	27.303727406389	-6.853439477972418	-17.44156827268501	50.85734020814983	160.8908559757287	0	0	30.10724544405779	-8.645317734999898	-12.14834587339105	27.1047441552847	128.3801591994204	0	0
0.05	-3.500255635610299	-1.280308619674533	25.81384777663133	0	0.9399999999999999	0	5.380659768129742	-2.484580258977806	-1.848018052047719	6.864663977969958	0.1198109884586272	0	0	0	5.380659768129742	-2.484580258977806	-1.848018052047719	6.864663977969958	0.1198109884586272	0	0	0	0.1844938171887303	-0.2835380270301081	5.826511778017273	27.3058911949699	-6.878128398355151	-17.41431044593399	50.86614300402378	160.8265843436321	0	0	30.02205624047439	-8.670132831338032	-12.06505113721487	27.20987377460716	128.2774017819943	0	0
0.06666666666666667	-3.49166571268659	-1.249976863718672	25.82632160282639	0	0.9399999999999999	0	5.711498204530511	-2.622000895354323	-1.963336318802022	7.149034420664529	0.1247741889790014	0	0	0	5.711498204530511	-2.622000895354323	-1.963336318802022	7.149034420664529	0.1247741889790014	0	0	0	0.1832167595924371	-0.2567257501893713	5.807788362305083	27.32215001172775	-6.904210246558874	-17.36857115397544	50.82677928033678	160.840677670748	0	0	29.94275222298768	-8.658735378704712	-12.06265264998894	27.26334458012439	128.3199369824453	0	0
0.08333333333333333	-3.481729323622697	-1.23998713594525	25.87108947031994	0	0.9399999999999999	0	5.985169814774934	-2.729400106579154	-2.058372858811431	7.361689933137376	0.1284857278441684	0	0	0	5.985169814774934	-2.729400106579154	-2.058372858811431	7.361689933137376	0.1284857278441684	0	0	0	0.1767143593959265	-0.2480650744101042	5.795653603328643	27.35788709365957	-6.924982757847002	-17.40971517322758	50.78581902567639	160.8534296191013	0	0	29.88795572192489	-8.683699050813939	-12.05125447151501	27.30257688287067	128.3483941953161	0	0
0.09999999999999999	-3.481402070933604	-1.217214762967621	25.87215703970066	0	0.9399999999999999	0	5.990218637104383	-2.731856552478218	-2.060093902881213	7.36818523966488	0.1285990923289997	0	0	0	5.990218637104383	-2.731856552478218	-2.060093902881213	7.36818523966488	0.1285990923289997	0	0	0	0.1869158272725424	-0.2277307145203454	5.8082587782734	27.4071623210387	-6.93039202480181	-17.42765770793832	50.73977574794221	160.9094769497162	0	0	29.82341207611401	-8.736381959510025	-12.00631545943268	27.27645778912507	128.4851088269117	0	0
0.1166666666666667	-3.48176335269175	-1.212239210402674	25.91519056613617	0	0.9399999999999999	0	6.027453676803015	-2.750197536627019	-2.072843028527626	7.415860019126711	0.1294311742007708	0	0	0	6.027453676803015	-2.750197536627019	-2.072843028527626	7.415860019126711	0.1294311742007708	0	0	0	0.1856777732960755	-0.2225844574956321	5.770536280926878	27.53639435052281	-6.688556551185322	-17.16800180358319	49.28834371178394	159.9767160892881	0	0	29.75976470320962	-8.743190021435492	-12.0174096464515	27.3416246735338	128.4966000858575	0	0
0.1333333333333333	-3.493896392908083	-1.202855315226963	25.90601523561909	0	0.9399999999999999	0	6.041371197641585	-2.757020300125245	-2.077601513211398	7.433682478066982	0.12974223479008	0	0	0	6.041371197641585	-2.757020300125245	-2.077601513211398	7.433682478066982	0.12974223479008	0	0	0	0.1782926272449625	-0.2087582008651955	5.777424288342777	27.65461611346511	-6.649265868949723	-17.22416264054261	49.19423782036584	160.0870084528048	0	0	29.71296502013795	-8.7616846812801	-12.02299874082878	27.37198950366286	128.5815650546774	0	0
0.15	-3.463073872659578	-1.178880834705438	25.85132573541646	0	0.9399999999999999	0	6.052843364198323	-2.762637804503609	-2.081522762222584	7.448368911088147	0.129998561401673	0	0	0	6.052843364198323	-2.762637804503609	-2.081522762222584	7.448368911088147	0.129998561401673	0	0	0	0.216234349053875	-0.2005986183773763	5.795603226553521	27.68507688633893	-6.610648952971767	-17.22649756484279	49.09122814866789	160.1375854300429	0	0	29.63898514474034	-8.812263850591204	-12.05297347234003	27.258969909626	129.1387155556718	0	0
0.1666666666666667	-3.455614232280515	-1.164929053995509	25.79866212625069	0	0.9399999999999999	0	6.063888668177295	-2.76804598660324	-2.085298379764653	7.462501020158269	0.1302452132351975	0	0	0	6.063888668177295	-2.76804598660324	-2.085298379764653	7.462501020158269	0.1302452132351975	0	0	0	0.2287282442445451	-0.1912010661076541	5.810709712425539	27.66742486965788	-6.608097066152526	-17.18901884010942	49.08609570180374	160.1370922738747	0	0	29.53563882861663	-8.882744406548913	-12.04942606727081	27.25815393997596	129.6630960057074	0	0
0.1833333333333333	-3.457703127053561	-1.152201000036663	25.77573805956935	0	0.9399999999999999	0	6.077013017245674	-2.774476592646854	-2.089786201158522	7.479279249795267	0.1305380485850188	0	0	0	6.077013017245674	-2.774476592646854	-2.089786201158522	7.479279249795267	0.1305380485850188	0	0	0	0.2319145256101809	-0.1787485890095675	5.821124076639482	27.74447962844659	-6.60009841237956	-17.16744624029031	49.01430396129854	160.1787783801456	0	0	29.46368406668106	-8.911808797350458	-12.02266659842949	27.293989740957	129.8936422903845	0	0
0.2	-3.447877354609842	-1.162234318239933	25.73024329853015	0	0.9399999999999999	0	6.084527890059285	-2.778159872135089	-2.092356423664495	7.488879924193463	0.1307056119636793	0	0	0	6.084527890059285	-2.778159872135089	-2.092356423664495	7.488879924193463	0.1307056119636793	0	0	0	0.2363170276782247	-0.1920517590937163	5.842315729333915	27.77607692181402	-6.608976771717852	-17.21637846436569	48.83642731322609	159.8704090542354	0	0	29.39782473576054	-8.983600148348902	-11.93127353050707	27.30116630684036	130.2655122846469	0	0
0.2166666666666666	-3.475184188728055	-1.155764355440657	25.67142531425641	0	0.9399999999999999	0	6.087492187340422	-2.779593255035056	-2.093365562284861	7.49268154613702	0.1307719627835104	0	0	0	6.087492187340422	-2.779593255035056	-2.093365562284861	7.49268154613702	0.1307719627835104	0	0	0	0.2143062195637266	-0.1743239906626825	5.840212912684446	27.84196470905093	-6.616471839865564	-17.11579154570276	48.83219536225219	159.8696330124903	0	5.38806921148701e-36	29.35779362771315	-9.002134758262494	-11.81137146260229	27.31295113474902	130.3764269846203	0	5.38806921148701e-36
0.2333333333333333	-3.503623822488196	-1.191809368161704	25.6156665589351	0	0.9399999999999999	0	6.095381459680103	-2.783460690218666	-2.096064242277853	7.502754446448266	0.1309477680591668	0	0	0	6.095381459680103	-2.783460690218666	-2.096064242277853	7.502754446448266	0.1309477680591668	0	0	0	0.1725549950030526	-0.1943516507995582	5.839167115336234	27.95823720344336	-6.594571596592996	-17.07816699258342	48.72315415717101	159.531986953187	0	0	29.37761653920964	-9.054738620756609	-11.70783111881467	27.33984290329796	130.5625947069087	0	0
0.25	-3.524281604941894	-1.18552416598825	25.57170675430374	0	0.9399999999999999	0	6.106263746945896	-2.788796416744797	-2.099787247143949	7.516642124970106	0.1311901537748314	0	0	0	6.106263746945896	-2.788796416744797	-2.099787247143949	7.516642124970106	0.1311901537748314	0	0	0	0.1558312297096056	-0.1795831525188956	5.825491863922473	28.00137303742079	-6.611985545346159	-17.00930165793654	48.70113700494133	159.5033270493577	0	0	29.3959430957505	-9.056951634327687	-11.72731758060911	27.32276673975983	130.7006558113326	0	0
0.2666666666666667	-3.542409269037471	-1.2120098799279	25.52098392326748	0	0.9399999999999999	0	6.119514308641445	-2.795286645988893	-2.104319389103959	7.533546141368563	0.1314851845177956	0	0	0	6.119514308641445	-2.795286645988893	-2.104319389103959	7.533546141368563	0.1314851845177956	0	0	0	0.1270534384295563	-0.1954397697520572	5.809092595479871	28.01054828573772	-6.587262055527749	-16.98567331234906	48.69095840305609	159.2543996435123	0	0	29.44872291974948	-9.10987173866757	-11.77581447284586	27.32474750372973	130.7042214049056	0	0
0.2833333333333333	-3.59933973487172	-1.262836523303065	25.48514338542619	0	0.9399999999999999	0	6.127623192601831	-2.799248109795031	-2.107090646322501	7.543893117157636	0.1316657733129391	0	0	0	6.127623192601831	-2.799248109795031	-2.107090646322501	7.543893117157636	0.1316657733129391	0	0	0	0.05322684484294459	-0.2166238699280594	5.805250702568579	28.08713442423687	-6.568307759345232	-16.9725670898204	48.76390963430745	159.1843746671295	0	0	29.56503368980646	-9.141615512336006	-11.77733515592368	27.36371361139557	130.8154795141587	0	0
0.3	-3.638019603705291	-1.289917806958512	25.44105776603191	0	0.9399999999999999	0	6.327110077420875	-2.878441337709753	-2.176728967765186	7.696840766409849	0.1343352133755756	0	0	0	6.327110077420875	-2.878441337709753	-2.176728967765186	7.696840766409849	0.1343352133755756	0	0	0	-0.008728183846421784	-0.2203738034957338	5.765380416263973	28.20282852708232	-6.530640468807189	-16.90732777475231	48.76223371125206	159.19432442195	0	0	29.64037523055113	-9.18366503725365	-11.7633657424338	27.3554707875935	130.7619657735573	0	0
0.3166666666666667	-3.640775555990703	-1.297609598028412	25.43751567321887	0	0.9399999999999999	0	6.556508562966252	-2.974746657269569	-2.256384008180351	7.901286814089295	0.1379034700502713	0	0	0	6.556508562966252	-2.974746657269569	-2.256384008180351	7.901286814089295	0.1379034700502713	0	0	0	-0.02981665711484804	-0.2230994050089839	5.754467159697327	28.1821554906955	-6.546090733728829	-16.8589013373057	48.78737793110857	159.0645560839882	0	0	29.62832930847835	-9.193522348765375	-11.65408775341474	27.37353385487472	130.6785157158868	0	0
